TITLE ""
FILE "2Q_t_1101-1117.mp3" MP3
  TRACK 01 AUDIO
    TITLE "2Q_t_1101-1117_01"
    INDEX 01 00:00:00
  TRACK 02 AUDIO
    TITLE "2Q_t_1101-1117_02"
    INDEX 01 00:01:45
  TRACK 03 AUDIO
    TITLE "2Q_t_1101-1117_03"
    INDEX 01 00:02:19
  TRACK 04 AUDIO
    TITLE "2Q_t_1101-1117_04"
    INDEX 01 00:03:26
  TRACK 05 AUDIO
    TITLE "2Q_t_1101-1117_05"
    INDEX 01 00:03:71
  TRACK 06 AUDIO
    TITLE "2Q_t_1101-1117_06"
    INDEX 01 00:04:65
  TRACK 07 AUDIO
    TITLE "2Q_t_1101-1117_07"
    INDEX 01 00:05:51
  TRACK 08 AUDIO
    TITLE "2Q_t_1101-1117_08"
    INDEX 01 00:07:73
  TRACK 09 AUDIO
    TITLE "2Q_t_1101-1117_09"
    INDEX 01 00:08:43
  TRACK 10 AUDIO
    TITLE "2Q_t_1101-1117_10"
    INDEX 01 00:09:37
  TRACK 11 AUDIO
    TITLE "2Q_t_1101-1117_11"
    INDEX 01 00:10:22
  TRACK 12 AUDIO
    TITLE "2Q_t_1101-1117_12"
    INDEX 01 00:11:43
  TRACK 13 AUDIO
    TITLE "2Q_t_1101-1117_13"
    INDEX 01 00:12:13
  TRACK 14 AUDIO
    TITLE "2Q_t_1101-1117_14"
    INDEX 01 00:13:15
  TRACK 15 AUDIO
    TITLE "2Q_t_1101-1117_15"
    INDEX 01 00:13:72
  TRACK 16 AUDIO
    TITLE "2Q_t_1101-1117_16"
    INDEX 01 00:15:33
  TRACK 17 AUDIO
    TITLE "2Q_t_1101-1117_17"
    INDEX 01 00:16:03
  TRACK 18 AUDIO
    TITLE "2Q_t_1101-1117_18"
    INDEX 01 00:16:70
  TRACK 19 AUDIO
    TITLE "2Q_t_1101-1117_19"
    INDEX 01 00:17:54
  TRACK 20 AUDIO
    TITLE "2Q_t_1101-1117_20"
    INDEX 01 00:20:29
  TRACK 21 AUDIO
    TITLE "2Q_t_1101-1117_21"
    INDEX 01 00:20:74
  TRACK 22 AUDIO
    TITLE "2Q_t_1101-1117_22"
    INDEX 01 00:22:00
  TRACK 23 AUDIO
    TITLE "2Q_t_1101-1117_23"
    INDEX 01 00:22:53
  TRACK 24 AUDIO
    TITLE "2Q_t_1101-1117_24"
    INDEX 01 00:23:72
  TRACK 25 AUDIO
    TITLE "2Q_t_1101-1117_25"
    INDEX 01 00:24:44
  TRACK 26 AUDIO
    TITLE "2Q_t_1101-1117_26"
    INDEX 01 00:25:38
  TRACK 27 AUDIO
    TITLE "2Q_t_1101-1117_27"
    INDEX 01 00:26:21
  TRACK 28 AUDIO
    TITLE "2Q_t_1101-1117_28"
    INDEX 01 00:27:44
  TRACK 29 AUDIO
    TITLE "2Q_t_1101-1117_29"
    INDEX 01 00:28:14
  TRACK 30 AUDIO
    TITLE "2Q_t_1101-1117_30"
    INDEX 01 00:29:28
  TRACK 31 AUDIO
    TITLE "2Q_t_1101-1117_31"
    INDEX 01 00:30:06
  TRACK 32 AUDIO
    TITLE "2Q_t_1101-1117_32"
    INDEX 01 00:32:59
  TRACK 33 AUDIO
    TITLE "2Q_t_1101-1117_33"
    INDEX 01 00:33:27
  TRACK 34 AUDIO
    TITLE "2Q_t_1101-1117_34"
    INDEX 01 00:34:35
  TRACK 35 AUDIO
    TITLE "2Q_t_1101-1117_35"
    INDEX 01 00:35:16
  TRACK 36 AUDIO
    TITLE "2Q_t_1101-1117_36"
    INDEX 01 00:37:55
  TRACK 37 AUDIO
    TITLE "2Q_t_1101-1117_37"
    INDEX 01 00:38:27
  TRACK 38 AUDIO
    TITLE "2Q_t_1101-1117_38"
    INDEX 01 00:39:65
  TRACK 39 AUDIO
    TITLE "2Q_t_1101-1117_39"
    INDEX 01 00:40:37
  TRACK 40 AUDIO
    TITLE "2Q_t_1101-1117_40"
    INDEX 01 00:42:03
  TRACK 41 AUDIO
    TITLE "2Q_t_1101-1117_41"
    INDEX 01 00:42:50
  TRACK 42 AUDIO
    TITLE "2Q_t_1101-1117_42"
    INDEX 01 00:43:67
  TRACK 43 AUDIO
    TITLE "2Q_t_1101-1117_43"
    INDEX 01 00:44:39
  TRACK 44 AUDIO
    TITLE "2Q_t_1101-1117_44"
    INDEX 01 00:47:31
  TRACK 45 AUDIO
    TITLE "2Q_t_1101-1117_45"
    INDEX 01 00:48:03
  TRACK 46 AUDIO
    TITLE "2Q_t_1101-1117_46"
    INDEX 01 00:49:22
  TRACK 47 AUDIO
    TITLE "2Q_t_1101-1117_47"
    INDEX 01 00:49:71
  TRACK 48 AUDIO
    TITLE "2Q_t_1101-1117_48"
    INDEX 01 00:53:54
  TRACK 49 AUDIO
    TITLE "2Q_t_1101-1117_49"
    INDEX 01 00:54:24
  TRACK 50 AUDIO
    TITLE "2Q_t_1101-1117_50"
    INDEX 01 00:55:31
  TRACK 51 AUDIO
    TITLE "2Q_t_1101-1117_51"
    INDEX 01 00:56:05
  TRACK 52 AUDIO
    TITLE "2Q_t_1101-1117_52"
    INDEX 01 00:58:00
  TRACK 53 AUDIO
    TITLE "2Q_t_1101-1117_53"
    INDEX 01 00:58:45
  TRACK 54 AUDIO
    TITLE "2Q_t_1101-1117_54"
    INDEX 01 01:00:03
  TRACK 55 AUDIO
    TITLE "2Q_t_1101-1117_55"
    INDEX 01 01:00:50
  TRACK 56 AUDIO
    TITLE "2Q_t_1101-1117_56"
    INDEX 01 01:02:45
  TRACK 57 AUDIO
    TITLE "2Q_t_1101-1117_57"
    INDEX 01 01:03:15
  TRACK 58 AUDIO
    TITLE "2Q_t_1101-1117_58"
    INDEX 01 01:04:40
  TRACK 59 AUDIO
    TITLE "2Q_t_1101-1117_59"
    INDEX 01 01:05:16
  TRACK 60 AUDIO
    TITLE "2Q_t_1101-1117_60"
    INDEX 01 01:06:44
  TRACK 61 AUDIO
    TITLE "2Q_t_1101-1117_61"
    INDEX 01 01:07:16
  TRACK 62 AUDIO
    TITLE "2Q_t_1101-1117_62"
    INDEX 01 01:08:36
  TRACK 63 AUDIO
    TITLE "2Q_t_1101-1117_63"
    INDEX 01 01:09:15
  TRACK 64 AUDIO
    TITLE "2Q_t_1101-1117_64"
    INDEX 01 01:12:20
  TRACK 65 AUDIO
    TITLE "2Q_t_1101-1117_65"
    INDEX 01 01:12:65
  TRACK 66 AUDIO
    TITLE "2Q_t_1101-1117_66"
    INDEX 01 01:14:07
  TRACK 67 AUDIO
    TITLE "2Q_t_1101-1117_67"
    INDEX 01 01:14:54
  TRACK 68 AUDIO
    TITLE "2Q_t_1101-1117_68"
    INDEX 01 01:16:00
  TRACK 69 AUDIO
    TITLE "2Q_t_1101-1117_69"
    INDEX 01 01:16:47
  TRACK 70 AUDIO
    TITLE "2Q_t_1101-1117_70"
    INDEX 01 01:17:66
  TRACK 71 AUDIO
    TITLE "2Q_t_1101-1117_71"
    INDEX 01 01:18:40
  TRACK 72 AUDIO
    TITLE "2Q_t_1101-1117_72"
    INDEX 01 01:21:22
